<svg xmlns="http://www.w3.org/2000/svg" width="600" height="600" viewBox="0 0 600 600">
<defs>
  <linearGradient id="bg" x1="0" y1="0" x2="1" y2="1">
    <stop offset="0%" stop-color="#33312b"/>
    <stop offset="100%" stop-color="#f4e34a"/>
  </linearGradient>
</defs>
<rect width="600" height="600" fill="url(#bg)"/>
<rect x="0" y="0" width="600" height="25" fill="#ff5e2e" opacity="0"/><rect x="0" y="50" width="600" height="25" fill="#ff5e2e" opacity="0.18"/><rect x="0" y="100" width="600" height="25" fill="#ff5e2e" opacity="0.36"/><rect x="0" y="150" width="600" height="25" fill="#ff5e2e" opacity="0"/><rect x="0" y="200" width="600" height="25" fill="#ff5e2e" opacity="0.18"/><rect x="0" y="250" width="600" height="25" fill="#ff5e2e" opacity="0.36"/><rect x="0" y="300" width="600" height="25" fill="#ff5e2e" opacity="0"/><rect x="0" y="350" width="600" height="25" fill="#ff5e2e" opacity="0.18"/><rect x="0" y="400" width="600" height="25" fill="#ff5e2e" opacity="0.36"/><rect x="0" y="450" width="600" height="25" fill="#ff5e2e" opacity="0"/><rect x="0" y="500" width="600" height="25" fill="#ff5e2e" opacity="0.18"/><rect x="0" y="550" width="600" height="25" fill="#ff5e2e" opacity="0.36"/>
<rect x="24" y="24" width="552" height="552" fill="none" stroke="#000" stroke-width="6" opacity="0.6"/>
<defs>
<filter id="bevel" x="-20%" y="-20%" width="140%" height="140%">
  <feGaussianBlur in="SourceAlpha" stdDeviation="1.5" result="blur"/>
  <feOffset dx="3" dy="3" result="shadow"/>
  <feComposite in="blur" in2="shadow" operator="over" result="shadow2"/>
  <feMerge>
    <feMergeNode in="SourceGraphic"/>
    <feMergeNode in="shadow2"/>
  </feMerge>
</filter>
</defs>
<text x="44" y="70" font-family="'Courier New', monospace" font-size="22" font-weight="700" fill="#000" opacity="0.75">[ CASSETTE KINGS ]</text>
<g filter="url(#bevel)" font-family="Impact, 'Arial Black', 'Haettenschweiler', sans-serif">
  <text x="300" y="295" text-anchor="middle" font-size="52" font-weight="900" letter-spacing="2" fill="#fff" stroke="#000" stroke-width="1.5" paint-order="stroke">BOOMBOX C</text>
  <text x="300" y="303" text-anchor="middle" font-size="52" font-weight="900" letter-spacing="2" fill="none" stroke="#fff" stroke-width="1" opacity="0.35">BOOMBOX C</text>
</g>
<g filter="url(#bevel)" font-family="Impact, 'Arial Black', 'Haettenschweiler', sans-serif">
  <text x="300" y="353" text-anchor="middle" font-size="52" font-weight="900" letter-spacing="2" fill="#fff" stroke="#000" stroke-width="1.5" paint-order="stroke">HRONICLES</text>
  <text x="300" y="361" text-anchor="middle" font-size="52" font-weight="900" letter-spacing="2" fill="none" stroke="#fff" stroke-width="1" opacity="0.35">HRONICLES</text>
</g>
<g font-family="'Courier New', monospace">
<text x="44" y="556" font-size="24" font-weight="700" fill="#000" opacity="0.8">DJ STATIC & LYRIC · 1991</text>
<text x="556" y="556" text-anchor="end" font-size="24" font-weight="700" fill="#000" opacity="0.8">★★★★★</text>
</g>
</svg>